<svg width="199" height="123" viewBox="0 0 199 123" fill="none" xmlns="http://www.w3.org/2000/svg">
<path d="M7.25 35L20 34.75C19.8333 33.9167 19.6667 33.3333 19.5 33C19.5 32.5 19.4167 30.4167 19.25 26.75C19.25 22.9167 19.5833 20.5 20.25 19.5C20.75 18.6667 21.5 18.1667 22.5 18C23.3333 18 24.0833 18.75 24.75 20.25C25.5833 21.5833 26.0833 22.9167 26.25 24.25L26.75 41.25C26.75 43.25 26.6667 45.5833 26.5 48.25C26.3333 50.9167 26.0833 53.5 25.75 56C25.5833 58.5 24.75 60.75 23.25 62.75C21.9167 64.75 18.75 65.75 13.75 65.75C6.91667 65.9167 2.91667 63.75 1.75 59.25C0.75 54.75 0.25 50.8333 0.25 47.5C0.25 44.1667 0.25 42.1667 0.25 41.5L0.75 25.25C0.75 21.4167 1.91667 19.5 4.25 19.5C6.58333 19.6667 7.75 21.5833 7.75 25.25C7.58333 29.0833 7.5 31.5 7.5 32.5L7.25 35ZM20 42.5H7.25C7.08333 43.1667 6.91667 43.6667 6.75 44C6.75 44.1667 6.75 44.5 6.75 45C6.91667 45.3333 6.91667 46.5 6.75 48.5C6.75 50.3333 7 51.9167 7.5 53.25C8 55.4167 8.66667 56.8333 9.5 57.5C10.5 58 11.8333 58.25 13.5 58.25C15.8333 58.4167 17.5 57.8333 18.5 56.5C19.5 55 20 51.3333 20 45.5V44V42.5ZM45.75 77C44.5833 76.6667 42 76.5 38 76.5C34.1667 76.3333 31.75 74.8333 30.75 72C29.9167 69.1667 29.5833 64.5833 29.75 58.25V51.25L32 28C32 26.8333 32.0833 25.0833 32.25 22.75C32.4167 20.25 32.1667 17.9167 31.5 15.75L29.5 10C29.3333 9.5 29.3333 9 29.5 8.5C29.6667 6.16667 30.75 5 32.75 5C34.25 5.16667 35.25 6 35.75 7.5C36.25 8.83333 37.1667 11.75 38.5 16.25C49 16.4167 54.75 16.8333 55.75 17.5C56.75 18 57.25 18.75 57.25 19.75C57.4167 20.5833 57.3333 21.1667 57 21.5C55.8333 23 53 23.6667 48.5 23.5H40.75H39.25L39 26.25L37.5 42.5L37.25 45.5C38.0833 45.6667 38.75 45.6667 39.25 45.5L43.25 45.25C44.75 45.25 47.25 45.5 50.75 46C54.4167 46.5 57.5 47.4167 60 48.75C62.5 49.9167 64.4167 51.75 65.75 54.25C67.0833 56.5833 67.75 58.3333 67.75 59.5C67.5833 61.3333 66.5 62.1667 64.5 62C64 62 62.25 60.75 59.25 58.25C56.4167 55.5833 54.0833 54 52.25 53.5C50.4167 52.8333 45.25 52.4167 36.75 52.25V56C41.75 56 45.9167 56.25 49.25 56.75C52.75 57.25 55.75 58.75 58.25 61.25C60.75 63.5833 63.25 66.6667 65.75 70.5C68.25 74.1667 69.4167 76.75 69.25 78.25C68.9167 80.25 68 81.1667 66.5 81C65.8333 81 65.1667 80.9167 64.5 80.75C64 80.4167 63.5 79.8333 63 79L56.5 69C53.5 65.5 49.8333 63.6667 45.5 63.5C41.1667 63.1667 38.5833 63.1667 37.75 63.5C37.0833 63.6667 36.6667 63.9167 36.5 64.25C36.5 64.4167 36.75 64.9167 37.25 65.75L37.75 67.25C37.75 67.5833 37.8333 67.8333 38 68C38.1667 68.1667 39.8333 68.4167 43 68.75C46.3333 68.9167 49.5 70.1667 52.5 72.5C55.6667 74.6667 58 77.5 59.5 81C61 84.5 61.8333 86.8333 62 88C62.3333 89 62.5 90.75 62.5 93.25C62.6667 95.75 62.75 97.5 62.75 98.5C62.9167 99.5 62.9167 101.333 62.75 104C62.25 110.833 61.5833 115.667 60.75 118.5C59.9167 121.5 58.5 122.917 56.5 122.75C54.1667 122.75 53.1667 121.75 53.5 119.75C53.5 119.583 53.5833 119.083 53.75 118.25C53.9167 117.583 54.4167 114.667 55.25 109.5L55.75 106.25C56.0833 103.417 56.25 100.833 56.25 98.5C56.0833 96 55.5833 92.9167 54.75 89.25C54.0833 85.5833 53.5 83.4167 53 82.75L51.5 81C50.8333 82.3333 50.3333 83.1667 50 83.5L46 87.25C45.8333 87.75 45.6667 88.5 45.5 89.5C45.5 90.5 46.0833 91.8333 47.25 93.5L52.75 101.25C53.0833 102.25 53.25 103.083 53.25 103.75C53.0833 105.417 52.4167 106.25 51.25 106.25C48.75 106.417 46.1667 104.667 43.5 101C41 97.5 39.6667 94.25 39.5 91.25L39.25 89.25C36.75 90.0833 35.4167 92.0833 35.25 95.25C35.0833 97.9167 36.4167 101.333 39.25 105.5C42.25 109.833 43.6667 112.333 43.5 113C42.5 116.167 40.9167 117 38.75 115.5C36.25 114 34.1667 111.833 32.5 109C30.8333 106.167 29.6667 103.917 29 102.25C28.5 100.75 28.1667 98.5833 28 95.75C28 92.75 28.8333 90.1667 30.5 88C32 85.8333 33.6667 84.25 35.5 83.25L44.5 79.75L45.75 77ZM39.5 5.5C39.3333 4.33333 39.5 3.33333 40 2.5C40.6667 1.5 41.5 0.916667 42.5 0.75C42.8333 0.75 43.3333 0.916667 44 1.25C44.6667 1.58333 45 1.83333 45 2C45.1667 2.16667 45.3333 2.41667 45.5 2.75L46 6C46 6.66667 46.0833 7.08333 46.25 7.25C46.4167 7.25 46.8333 7.16667 47.5 7C48.1667 6.83333 50.3333 6.75 54 6.75C55.6667 6.91667 57.3333 7.5 59 8.5C60.6667 9.5 61.9167 10.75 62.75 12.25C63.75 13.75 64.25 16.0833 64.25 19.25C64.4167 22.4167 63.9167 24.9167 62.75 26.75C60.75 29.9167 57.9167 31.9167 54.25 32.75C50.5833 33.4167 48.5833 33.8333 48.25 34C47.9167 34.1667 47.8333 34.3333 48 34.5C48 35 48.0833 35.25 48.25 35.25C48.4167 35.5833 49 35.75 50 35.75C51 35.5833 53.5 36.0833 57.5 37.25C61.5 38.25 63.9167 39.5 64.75 41C65.5833 42.5 66 43.5 66 44C66.1667 44.3333 66.0833 44.75 65.75 45.25C65.0833 46.4167 64.25 46.9167 63.25 46.75L55.75 43.75L45.25 41.75C42.25 40.75 40.8333 38.5833 41 35.25C41 31.5833 41.9167 29.3333 43.75 28.5C45.5833 27.6667 48.4167 26.8333 52.25 26C56.25 25.1667 58.1667 23.1667 58 20C57.8333 20 57.6667 19.3333 57.5 18C57.3333 16.6667 57.0833 15.75 56.75 15.25C56.5833 14.75 56.25 14.4167 55.75 14.25C55.25 13.9167 54.5833 13.6667 53.75 13.5H46.25C43.75 13.3333 42 12.4167 41 10.75C40 9.08333 39.5 7.33333 39.5 5.5ZM127.5 44C127.5 43.5 127.583 43 127.75 42.5L130.75 37.75C131.083 37.25 131.583 36 132.25 34C133.083 32 133.5 30 133.5 28C133.333 25.1667 132.583 22.8333 131.25 21L128.25 17.75C127.75 17.25 127.583 16.75 127.75 16.25C127.75 16.0833 128 15.5 128.5 14.5C129.167 13.5 130 13 131 13C131.833 13.1667 133.417 14.5 135.75 17C138.083 19.3333 139.25 22.3333 139.25 26C139.417 29.6667 139.25 32.6667 138.75 35C138.083 37.8333 136.917 40.5833 135.25 43.25C133.75 45.9167 132.083 47.1667 130.25 47C129.25 47 128.5 46.75 128 46.25C127.667 45.5833 127.5 45.1667 127.5 45C127.5 44.6667 127.5 44.3333 127.5 44ZM127.5 86.75C127.5 84.25 127.667 80.5833 128 75.75C128.333 70.9167 129.083 66.5833 130.25 62.75C131.583 58.75 132.583 56.25 133.25 55.25C134.083 54.25 135 53.75 136 53.75C136.667 53.9167 137.167 54.3333 137.5 55C138 55.6667 138.25 56.3333 138.25 57C138.083 57.3333 137.417 59.5833 136.25 63.75C135.25 67.9167 134.667 70.9167 134.5 72.75L134 81.75C133.833 84.0833 133.667 85.75 133.5 86.75C133.5 87.5833 133.75 89.3333 134.25 92C135.917 104.167 136.75 110.417 136.75 110.75C136.583 112.25 135.75 113 134.25 113C133.083 113.167 132 112.667 131 111.5C130.167 110.333 129.583 108.083 129.25 104.75L128 96C127.667 92.8333 127.5 89.75 127.5 86.75ZM145.75 67.25L145.5 84L146 91C146 91.6667 146.167 93 146.5 95L147.25 100.25C147.583 102.75 148.167 105.833 149 109.5C149.833 113.333 150.25 115.5 150.25 116C150.417 116.667 150.333 117.25 150 117.75C149.333 118.75 148.583 119.167 147.75 119C146.417 119 145.417 118.5 144.75 117.5C144.083 116.5 143.333 114.25 142.5 110.75L141.5 106.75L139.5 94L138.75 77.25L140 58L142.5 37.5C142.667 35.1667 142.75 32.6667 142.75 30C142.917 27.3333 142.75 24.8333 142.25 22.5C141.25 19.1667 140.167 16.6667 139 15L135 11C134.5 10.6667 134.083 10.1667 133.75 9.5C133.583 8.66667 133.417 8.08333 133.25 7.75C133.25 7.25 133.5 6.58333 134 5.75C134.333 4.91667 135.083 4.5 136.25 4.5C139.417 4.83333 142.417 7.66667 145.25 13C148.25 18.3333 149.667 23.0833 149.5 27.25C149.5 31.4167 149.417 34.8333 149.25 37.5L145.75 67.25ZM146 10.5C146 8.16667 147 6.91667 149 6.75C152 6.75 154.333 9.16667 156 14C157.667 18.6667 158.5 23.0833 158.5 27.25C158.667 31.4167 157.833 35.5 156 39.5C155 41.6667 153.75 42.5833 152.25 42.25C151.083 42.25 150.25 41.4167 149.75 39.75L152.25 29.25C152.25 28.5833 152.25 27.5833 152.25 26.25C152.417 24.9167 152.417 23.6667 152.25 22.5C151.917 20.8333 151.417 19.3333 150.75 18L146.75 12.75C146.25 12.0833 145.917 11.6667 145.75 11.5C145.75 11.1667 145.833 10.8333 146 10.5ZM155.5 82.75L156.5 89.75L161.25 104.5C161.417 105.167 161.417 106.417 161.25 108.25C161.25 110.083 160.5 110.833 159 110.5C157.833 110.5 156.667 109.667 155.5 108C154.5 106.333 153.25 103 151.75 98C150.417 92.8333 149.667 88.6667 149.5 85.5L148.75 73.75L148.5 70.75C147.833 63.75 149 57.6667 152 52.5C152.667 51.3333 153.417 50.75 154.25 50.75C154.75 50.9167 155.25 51.4167 155.75 52.25C156.417 53.0833 156.75 54.0833 156.75 55.25C156.917 56.25 156.75 57.6667 156.25 59.5C155.583 61.3333 155.167 62.9167 155 64.25C154.833 65.5833 154.833 67.1667 155 69L155.5 82.75ZM181 31.75C180.833 32.9167 180.75 35.3333 180.75 39C180.917 42.5 182.917 45.75 186.75 48.75L196 56.5C197 57.5 197.5 58.6667 197.5 60C197.667 61.1667 197.667 61.8333 197.5 62C196.333 63.6667 194.75 63.75 192.75 62.25C188.083 59.25 184.833 56.9167 183 55.25C181.167 53.5833 179.333 51 177.5 47.5C174 52.1667 170.333 56.1667 166.5 59.5C162.833 62.8333 160.583 64.4167 159.75 64.25C159.25 64.25 158.583 64.0833 157.75 63.75C156.917 63.25 156.583 62.5 156.75 61.5C156.75 60.5 157.167 59.5 158 58.5L168.25 48C170.417 45.6667 171.75 43.8333 172.25 42.5C172.917 41.1667 173.583 37.6667 174.25 32C173.25 32.6667 171.833 33.6667 170 35C168.167 36.1667 166.417 38.3333 164.75 41.5L162.25 46.5C161.25 48 160.333 48.6667 159.5 48.5C158.5 48.5 157.75 48.0833 157.25 47.25C156.75 46.4167 156.417 45.75 156.25 45.25C156.25 44.5833 156.417 43.9167 156.75 43.25C156.917 42.75 157.583 41.4167 158.75 39.25C159.917 36.9167 161.167 34.9167 162.5 33.25C164 31.4167 166.333 29.5833 169.5 27.75C172.667 25.75 174.333 24.6667 174.5 24.5V9.5C174.5 8.5 174.75 7.5 175.25 6.5C175.917 5.33333 176.833 4.75 178 4.75C179 4.91667 179.75 5.5 180.25 6.5C180.917 7.5 181.25 8.41667 181.25 9.25V23.5C181.25 24 181.25 24.3333 181.25 24.5C181.25 24.5 183 25.5833 186.5 27.75C190 29.75 192.833 33 195 37.5C197.167 42 198.167 44.8333 198 46C197.5 48.1667 196.75 49.1667 195.75 49C195.083 49 194.417 48.8333 193.75 48.5C193.083 48.1667 192.417 47.3333 191.75 46L188.75 40.25C186.25 36.0833 183.667 33.25 181 31.75ZM164.75 81.75L165.25 68.25C165.417 62.5833 166.75 59.75 169.25 59.75C170.083 59.9167 170.75 60.5 171.25 61.5C171.917 62.3333 172.25 63.3333 172.25 64.5C172.083 64.6667 171.917 65.1667 171.75 66C171.75 66.8333 171.75 68.4167 171.75 70.75L171.25 82.5C171.25 84.6667 171.5 87.1667 172 90C172.5 92.6667 174.333 94 177.5 94C179.833 94.1667 181.417 93.5833 182.25 92.25C183.25 90.75 183.75 88 183.75 84V80.75C183.583 79.0833 183.167 76.25 182.5 72.25C182 68.0833 181.917 65.1667 182.25 63.5C182.583 60.6667 183.583 59.25 185.25 59.25C187.583 59.5833 188.917 61.6667 189.25 65.5L189.75 76C189.917 80.1667 189.917 84.0833 189.75 87.75C189.75 91.4167 188.917 94.5833 187.25 97.25C185.583 99.9167 182.25 101.25 177.25 101.25C171.417 101.417 167.833 99.8333 166.5 96.5C165.333 93 164.667 89.8333 164.5 87C164.5 84 164.583 82.25 164.75 81.75Z" fill="#9E2E22"/>
</svg>
